<?xml version="1.0" encoding="UTF-8" standalone="no"?>
<!DOCTYPE svg PUBLIC "-//W3C//DTD SVG 1.1//EN" "http://www.w3.org/Graphics/SVG/1.1/DTD/svg11.dtd">
<svg width="100%" height="100%" viewBox="0 0 534 417" version="1.1" xmlns="http://www.w3.org/2000/svg" xmlns:xlink="http://www.w3.org/1999/xlink" xml:space="preserve" xmlns:serif="http://www.serif.com/" style="fill-rule:evenodd;clip-rule:evenodd;stroke-linecap:round;stroke-linejoin:round;">
    <g id="pieza-coral" transform="matrix(1,0,0,1,-131,-147)">
        <g>
            <g transform="matrix(1.468896,0,0,1.468896,-94.826042,13.751556)">
                <path d="M340,310c-10,0 -18,-8 -18,-18c0,-10 8,-18 18,-18l0,-44c0,0 -30,0 -50,-12c-20,-12 -35,-30 -38,-50c-3,-23 8,-44 26,-54c18,-10 40,-6 54,6c8,7 8,18 8,28c0,-10 0,-21 8,-28c0,0 -8,7 -8,28l-140,0c-15,0 -28,10 -32,24c-4,14 2,30 14,38c12,8 28,6 38,-2c8,-6 10,-16 8,-26l0,128l112,0Z" style="fill:none;fill-rule:nonzero;stroke:#a03123;stroke-width:11px;"/>
            </g>
            <g transform="matrix(1.468896,0,0,1.468896,-87.481563,-0.99961)">
                <path d="M252,234c10,-16 30,-22 46,-14c12,6 18,18 14,30" style="fill:none;fill-rule:nonzero;stroke:#a03123;stroke-width:8px;stroke-linejoin:miter;"/>
            </g>
        </g>
    </g>
    <g id="pieza-teal" transform="matrix(1,0,0,1,-131,-147)">
        <g>
            <g transform="matrix(-1.468896,0,0,1.468896,1068.539475,4.938181)">
                <path d="M338,318l0,-8c-10,0 -18,-8 -18,-18c0,-10 8,-18 18,-18l0,-130c0,8 -4,14 -10,18c-10,6 -24,4 -32,-6c-8,-10 -8,-26 2,-36c10,-10 26,-12 38,-4c10,6 14,18 14,32l92,0l0,40c-2,8 -10,14 -18,12c-12,-2 -20,-14 -18,-26c2,-12 12,-20 24,-18c12,2 22,12 22,26l0,136l-114,0Z" style="fill:none;fill-rule:nonzero;stroke:#00a8db;stroke-width:12px;"/>
            </g>
            <g transform="matrix(1.468896,0,0,1.468896,-88.950458,-0.99961)">
                <path d="M368,250c-4,-12 2,-24 14,-30c16,-8 36,-2 46,14" style="fill:none;fill-rule:nonzero;stroke:#00a8db;stroke-width:8px;stroke-linejoin:miter;"/>
            </g>
        </g>
    </g>
    <g transform="matrix(1.545093,0,0,1.545093,186.078549,399.197757)">
        <g>
            <g transform="matrix(25.888404,0,0,25.888404,-58.430128,0)">
                <path d="M0.487,-0.714l0,0.489c-0,0.161 -0.079,0.242 -0.238,0.242c-0.065,-0 -0.119,-0.017 -0.162,-0.052c-0.049,-0.039 -0.073,-0.096 -0.073,-0.169l0,-0.062l0.142,0l0,0.032c0,0.079 0.03,0.119 0.091,0.119c0.037,0 0.061,-0.013 0.073,-0.04c0.007,-0.015 0.01,-0.041 0.01,-0.077l0,-0.482l0.157,0Z" style="fill:#00a8db;fill-rule:nonzero;"/>
            </g>
            <g transform="matrix(25.888404,0,0,25.888404,-44.295059,0)">
                <path d="M0.038,-0.354c0,-0.109 0.031,-0.199 0.093,-0.268c0.064,-0.073 0.15,-0.109 0.258,-0.109c0.108,0 0.194,0.036 0.258,0.109c0.062,0.069 0.093,0.159 0.093,0.268c-0,0.107 -0.031,0.194 -0.093,0.263c-0.065,0.072 -0.151,0.108 -0.258,0.108c-0.107,0 -0.193,-0.036 -0.258,-0.108c-0.062,-0.069 -0.093,-0.156 -0.093,-0.263Zm0.157,0c-0,0.067 0.015,0.121 0.044,0.164c0.035,0.05 0.085,0.075 0.15,0.075c0.065,0 0.115,-0.025 0.15,-0.075c0.029,-0.043 0.044,-0.097 0.044,-0.164c0,-0.069 -0.015,-0.126 -0.044,-0.169c-0.034,-0.051 -0.084,-0.076 -0.15,-0.076c-0.066,0 -0.116,0.025 -0.15,0.076c-0.029,0.043 -0.044,0.1 -0.044,0.169Z" style="fill:#00a8db;fill-rule:nonzero;"/>
            </g>
            <g transform="matrix(25.888404,0,0,25.888404,-24.412765,0)">
                <path d="M-0.007,-0l0.271,-0.714l0.161,0l0.267,0.714l-0.163,-0l-0.054,-0.159l-0.267,0l-0.056,0.159l-0.159,-0Zm0.349,-0.538l-0.093,0.262l0.185,0l-0.09,-0.262l-0.002,0Z" style="fill:#00a8db;fill-rule:nonzero;"/>
            </g>
            <g transform="matrix(25.888404,0,0,25.888404,-6.938092,0)">
                <path d="M0.736,-0.01l-0.073,0.077l-0.101,-0.092c-0.049,0.028 -0.106,0.042 -0.173,0.042c-0.107,0 -0.193,-0.036 -0.258,-0.108c-0.062,-0.069 -0.093,-0.156 -0.093,-0.263c-0,-0.109 0.031,-0.199 0.093,-0.268c0.064,-0.073 0.15,-0.109 0.258,-0.109c0.108,0 0.194,0.036 0.258,0.109c0.062,0.069 0.093,0.159 0.093,0.268c-0,0.105 -0.031,0.193 -0.093,0.263l0.089,0.081Zm-0.351,-0.176l0.073,-0.078l0.081,0.074c0.029,-0.041 0.044,-0.095 0.044,-0.164c0,-0.069 -0.015,-0.126 -0.044,-0.169c-0.034,-0.051 -0.084,-0.076 -0.15,-0.076c-0.066,0 -0.116,0.025 -0.15,0.076c-0.029,0.043 -0.044,0.1 -0.044,0.169c-0,0.067 0.015,0.121 0.044,0.164c0.035,0.05 0.085,0.075 0.15,0.075c0.035,0 0.056,-0.003 0.063,-0.01l-0.067,-0.061Z" style="fill:#00a8db;fill-rule:nonzero;"/>
            </g>
            <g transform="matrix(25.888404,0,0,25.888404,12.944202,0)">
                <path d="M0.675,-0.714l0,0.444c0,0.095 -0.027,0.166 -0.08,0.215c-0.053,0.048 -0.128,0.072 -0.226,0.072c-0.203,0 -0.304,-0.096 -0.304,-0.287l0,-0.444l0.157,0l0,0.444c0,0.047 0.009,0.083 0.026,0.107c0.023,0.032 0.064,0.048 0.121,0.048c0.055,0 0.093,-0.013 0.116,-0.038c0.021,-0.023 0.032,-0.062 0.032,-0.117l0,-0.444l0.157,0Z" style="fill:#00a8db;fill-rule:nonzero;"/>
            </g>
            <g transform="matrix(25.888404,0,0,25.888404,31.868625,0)">
                <path d="M0.069,-0l0,-0.714l0.157,0l0,0.714l-0.157,-0Zm0.256,-0.92l-0.154,0.142l-0.099,0l0.096,-0.142l0.157,0Z" style="fill:#00a8db;fill-rule:nonzero;"/>
            </g>
            <g transform="matrix(25.888404,0,0,25.888404,39.24682,0)">
                <path d="M0.069,-0l0,-0.714l0.156,0l0.298,0.479l0.002,-0l0,-0.479l0.147,0l0,0.714l-0.157,-0l-0.297,-0.478l-0.002,0l0,0.478l-0.147,-0Z" style="fill:#00a8db;fill-rule:nonzero;"/>
            </g>
        </g>
    </g>
    <g transform="matrix(0.793716,0,0,0.145954,258.607127,370.637757)">
        <g transform="matrix(1.259897,0,0,6.851479,0,0)">
            <g transform="matrix(40,0,0,40,12.255586,28.56)">
                <path d="M0.069,-0l0,-0.714l0.221,0l0.167,0.491l0.002,-0l0.158,-0.491l0.221,0l0,0.714l-0.147,-0l0,-0.506l-0.002,0l-0.175,0.506l-0.121,-0l-0.175,-0.501l-0.002,0l0,0.501l-0.147,-0Z" style="fill:#a03123;fill-rule:nonzero;"/>
            </g>
            <g transform="matrix(40,0,0,40,52.135586,28.56)">
                <path d="M0.069,-0l0,-0.714l0.534,0l0,0.132l-0.377,0l0,0.153l0.346,0l0,0.122l-0.346,0l0,0.175l0.385,0l0,0.132l-0.542,-0Z" style="fill:#a03123;fill-rule:nonzero;"/>
            </g>
            <g transform="matrix(40,0,0,40,81.655586,28.56)">
                <path d="M0.069,-0l0,-0.714l0.308,0c0.097,0 0.174,0.029 0.231,0.088c0.062,0.062 0.093,0.15 0.093,0.265c0,0.108 -0.027,0.194 -0.08,0.258c-0.057,0.069 -0.139,0.103 -0.244,0.103l-0.308,-0Zm0.157,-0.582l0,0.45l0.14,0c0.051,0 0.092,-0.016 0.123,-0.048c0.037,-0.037 0.055,-0.093 0.055,-0.166c0,-0.077 -0.015,-0.134 -0.044,-0.172c-0.033,-0.043 -0.087,-0.064 -0.162,-0.064l-0.112,0Z" style="fill:#a03123;fill-rule:nonzero;"/>
            </g>
            <g transform="matrix(40,0,0,40,114.895586,28.56)">
                <rect x="0.069" y="-0.714" width="0.157" height="0.714" style="fill:#a03123;fill-rule:nonzero;"/>
            </g>
            <g transform="matrix(40,0,0,40,130.295586,28.56)">
                <path d="M0.069,-0l0,-0.714l0.156,0l0.298,0.479l0.002,-0l0,-0.479l0.147,0l0,0.714l-0.157,-0l-0.297,-0.478l-0.002,0l0,0.478l-0.147,-0Z" style="fill:#a03123;fill-rule:nonzero;"/>
            </g>
            <g transform="matrix(40,0,0,40,163.535586,28.56)">
                <path d="M-0.007,-0l0.271,-0.714l0.161,0l0.267,0.714l-0.163,-0l-0.054,-0.159l-0.267,0l-0.056,0.159l-0.159,-0Zm0.349,-0.538l-0.093,0.262l0.185,0l-0.09,-0.262l-0.002,0Z" style="fill:#a03123;fill-rule:nonzero;"/>
            </g>
        </g>
    </g>
</svg>
